<svg width="1920" height="400" viewBox="0 0 1920 400" fill="none" xmlns="http://www.w3.org/2000/svg">
<rect width="1920" height="400" fill="url(#paint0_linear_1_7)" fill-opacity="0.05"/>
<g opacity="0.2">
<path d="M281.834 227.395C281.841 233.358 280.672 239.264 278.394 244.774C276.115 250.283 272.772 255.288 268.557 259.5L128.242 400H0L204.436 195.295C210.777 188.947 218.855 184.623 227.65 182.872C236.444 181.121 245.56 182.02 253.844 185.456C262.128 188.891 269.209 194.71 274.191 202.175C279.173 209.64 281.833 218.417 281.834 227.395Z" fill="url(#paint1_linear_1_7)"/>
<path d="M334.513 291.862C334.518 295.598 333.786 299.298 332.359 302.75C330.932 306.202 328.839 309.337 326.199 311.976L238.339 400H158.038L286.049 271.751C290.02 267.774 295.078 265.065 300.585 263.968C306.092 262.871 311.8 263.434 316.987 265.587C322.174 267.739 326.608 271.384 329.728 276.061C332.847 280.738 334.513 286.237 334.513 291.862Z" fill="url(#paint2_linear_1_7)"/>
<path d="M349 349.05C349.002 350.811 348.653 352.554 347.971 354.18C347.29 355.807 346.29 357.284 345.029 358.527L303.066 400H264.713L325.853 339.575C327.749 337.701 330.165 336.425 332.795 335.908C335.426 335.391 338.152 335.656 340.629 336.671C343.107 337.685 345.224 339.402 346.714 341.606C348.204 343.809 349 346.4 349 349.05Z" fill="url(#paint3_linear_1_7)"/>
</g>
<g opacity="0.1">
<path d="M1680.16 146.477C1680.15 141.416 1681.15 136.404 1683.09 131.729C1685.03 127.053 1687.87 122.806 1691.46 119.232L1810.87 2.76525e-05L1920 3.71933e-05L1746.02 173.718C1740.63 179.105 1733.75 182.774 1726.27 184.26C1718.79 185.746 1711.03 184.983 1703.98 182.067C1696.93 179.152 1690.9 174.214 1686.66 167.879C1682.42 161.544 1680.16 154.096 1680.16 146.477Z" fill="url(#paint4_linear_1_7)"/>
<path d="M1635.33 91.7685C1635.32 88.598 1635.95 85.458 1637.16 82.5288C1638.38 79.5996 1640.16 76.9388 1642.4 74.6993L1717.17 1.94616e-05L1785.51 2.54358e-05L1676.57 108.835C1673.19 112.21 1668.89 114.509 1664.2 115.44C1659.52 116.371 1654.66 115.893 1650.24 114.066C1645.83 112.24 1642.06 109.146 1639.4 105.177C1636.75 101.208 1635.33 96.5421 1635.33 91.7685Z" fill="url(#paint5_linear_1_7)"/>
<path d="M1623 43.2371C1623 41.7433 1623.3 40.2639 1623.88 38.8838C1624.46 37.5036 1625.31 36.25 1626.38 35.1949L1662.09 1.46461e-05L1694.73 1.74994e-05L1642.7 51.2781C1641.08 52.8683 1639.03 53.9513 1636.79 54.39C1634.55 54.8287 1632.23 54.6035 1630.12 53.7428C1628.02 52.8822 1626.21 51.4247 1624.95 49.5547C1623.68 47.6847 1623 45.4862 1623 43.2371Z" fill="url(#paint6_linear_1_7)"/>
</g>
<defs>
<linearGradient id="paint0_linear_1_7" x1="-4.57425e-06" y1="196.923" x2="1920" y2="196.923" gradientUnits="userSpaceOnUse">
<stop stop-color="#7E90FE"/>
<stop offset="1" stop-color="#9873FF"/>
</linearGradient>
<linearGradient id="paint1_linear_1_7" x1="-8.31465e-07" y1="289.323" x2="349" y2="289.323" gradientUnits="userSpaceOnUse">
<stop stop-color="#7E90FE"/>
<stop offset="1" stop-color="#9873FF"/>
</linearGradient>
<linearGradient id="paint2_linear_1_7" x1="-8.31465e-07" y1="289.323" x2="349" y2="289.323" gradientUnits="userSpaceOnUse">
<stop stop-color="#7E90FE"/>
<stop offset="1" stop-color="#9873FF"/>
</linearGradient>
<linearGradient id="paint3_linear_1_7" x1="-8.31465e-07" y1="289.323" x2="349" y2="289.323" gradientUnits="userSpaceOnUse">
<stop stop-color="#7E90FE"/>
<stop offset="1" stop-color="#9873FF"/>
</linearGradient>
<linearGradient id="paint4_linear_1_7" x1="1920" y1="93.9231" x2="1623" y2="93.9231" gradientUnits="userSpaceOnUse">
<stop stop-color="#7E90FE"/>
<stop offset="1" stop-color="#9873FF"/>
</linearGradient>
<linearGradient id="paint5_linear_1_7" x1="1920" y1="93.9231" x2="1623" y2="93.9231" gradientUnits="userSpaceOnUse">
<stop stop-color="#7E90FE"/>
<stop offset="1" stop-color="#9873FF"/>
</linearGradient>
<linearGradient id="paint6_linear_1_7" x1="1920" y1="93.9231" x2="1623" y2="93.9231" gradientUnits="userSpaceOnUse">
<stop stop-color="#7E90FE"/>
<stop offset="1" stop-color="#9873FF"/>
</linearGradient>
</defs>
</svg>
