<svg xmlns="http://www.w3.org/2000/svg" width="30" height="30" viewBox="0 0 24 24">
  <path fill="#1DA1F2" d="M22 4.937c-.81.36-1.68.603-2.6.713a4.512 4.512 0 0 0 1.984-2.496 9.027 9.027 0 0 1-2.878 1.104A4.513 4.513 0 0 0 14.71 4a4.507 4.507 0 0 0-7.65 4.1A12.81 12.81 0 0 1 3 3.914a4.51 4.51 0 0 0 1.397 5.996 4.49 4.49 0 0 1-2.043-.564v.057a4.508 4.508 0 0 0 3.615 4.425 4.513 4.513 0 0 1-2.04.077 4.51 4.51 0 0 0 4.217 3.134 9.055 9.055 0 0 1-5.604 1.93c-.365 0-.724-.022-1.08-.08a12.78 12.78 0 0 0 6.906 2.032c8.263 0 12.785-6.845 12.785-12.785 0-.194-.005-.385-.012-.577a9.172 9.172 0 0 0 2.252-2.336z"/>
</svg>
